<?xml version="1.0" standalone="no"?>
<!DOCTYPE svg PUBLIC "-//W3C//DTD SVG 1.1//EN" "http://www.w3.org/Graphics/SVG/1.1/DTD/svg11.dtd" >
<svg xmlns="http://www.w3.org/2000/svg">
<metadata></metadata>
<defs>
<font id="fzyouxian-z09sregular" horiz-adv-x="2048" vert-adv-y="2048" >
<font-face units-per-em="2048" ascent="1632" descent="-416" />
<missing-glyph horiz-adv-x="920" />
<glyph horiz-adv-x="0" vert-adv-y="0" />
<glyph horiz-adv-x="682" />
<glyph unicode=" "  horiz-adv-x="920" />
<glyph unicode="&#x09;" horiz-adv-x="920" />
<glyph unicode="&#xa0;" horiz-adv-x="920" />
<glyph unicode="!" horiz-adv-x="576" d="M176 112q8 128 136 136q120 -16 136 -136q-8 -120 -136 -128q-128 8 -136 128zM248 1472h144l-32 -1008h-80z" />
<glyph unicode="&#x22;" horiz-adv-x="600" d="M64 1248v224h192v-224l-56 -280h-80zM384 1248v224h192v-224l-48 -280h-88z" />
<glyph unicode="#" horiz-adv-x="1232" d="M88 488l16 88h272l56 328h-272l16 88h272l120 656h88l-328 -1832h-96l128 672h-272zM608 -184l336 1832h88l-120 -656h280l-24 -88h-272l-56 -328h272l-16 -88h-272l-128 -672h-88z" />
<glyph unicode="$" horiz-adv-x="960" d="M136 280l64 72q136 -128 264 -136v528q-280 96 -288 328q16 248 288 296v152h96v-152q160 -16 288 -128l-56 -72q-128 112 -232 120v-472q312 -104 304 -368q0 -136 -80 -216q-88 -88 -224 -104v-176h-96v176q-184 16 -328 152zM272 1064q8 -152 192 -224v448 q-184 -48 -192 -224zM560 216q192 16 208 232q0 184 -208 280v-512z" />
<glyph unicode="%" horiz-adv-x="1096" d="M128 1136q32 344 296 368q192 -8 200 -216q0 -120 -56 -216q-96 -152 -240 -160q-200 0 -200 224zM152 0l752 1504h88l-760 -1504h-80zM224 1120q-8 -144 104 -144q184 16 208 328q-8 136 -112 136q-176 -16 -200 -320zM520 192q24 352 288 376q192 -8 200 -216 q0 -120 -56 -216q-80 -144 -240 -144q-192 0 -192 200zM608 176q0 -136 112 -136q176 16 200 328q-8 136 -112 136q-176 -16 -200 -328z" />
<glyph unicode="&#x26;" horiz-adv-x="1064" d="M112 288q0 200 232 488q16 24 24 32q-8 8 -16 24q-136 224 -128 352q0 160 80 240q72 80 184 80q208 -24 232 -272q8 -184 -232 -432l296 -472q32 120 32 400h104q-8 -320 -80 -480l176 -208l-64 -56l-160 176q-128 -176 -344 -176q-320 16 -336 304zM216 296 q8 -232 224 -240q208 8 304 176l-320 488q-216 -248 -208 -424zM328 1208q-8 -160 112 -328q24 32 56 88q152 192 120 272q-16 176 -144 184q-128 -8 -144 -216z" />
<glyph unicode="'" horiz-adv-x="312" d="M80 1248v224h192v-224l-56 -280h-80z" />
<glyph unicode="(" horiz-adv-x="640" d="M128 688q0 272 112 512q88 200 264 320l48 -64q-136 -96 -232 -288t-96 -480q0 -184 48 -352q88 -280 280 -400l-48 -64q-200 136 -304 400q-72 208 -72 416z" />
<glyph unicode=")" horiz-adv-x="640" d="M128 -64q176 104 272 360q56 184 56 392q0 264 -72 440q-96 224 -256 328l48 64q184 -128 288 -368q88 -200 88 -464q0 -240 -80 -448q-96 -232 -296 -368z" />
<glyph unicode="*" horiz-adv-x="1072" d="M104 1096l24 88l384 -112v400h88v-400l392 112l24 -88l-400 -112l256 -320l-72 -56l-240 312l-240 -312l-72 56l248 320z" />
<glyph unicode="+" horiz-adv-x="1320" d="M136 696v88h504v496h88v-496h496v-88h-496v-504h-88v504h-504z" />
<glyph unicode="," horiz-adv-x="480" d="M72 104q8 120 136 128q136 -8 144 -168q-16 -184 -280 -272v80q128 48 160 120h-40q-120 0 -120 112z" />
<glyph unicode="-" horiz-adv-x="1320" d="M136 696v88h1088v-88h-1088z" />
<glyph unicode="." horiz-adv-x="608" d="M192 112q8 128 136 136q120 -16 136 -136q-8 -120 -136 -128q-128 8 -136 128z" />
<glyph unicode="/" horiz-adv-x="584" d="M-24 -40l592 1568h96l-608 -1568h-80z" />
<glyph unicode="0" horiz-adv-x="992" d="M112 736q0 312 48 472q104 288 360 296q248 -8 352 -280q56 -168 56 -488q0 -312 -48 -472q-104 -272 -360 -280q-256 8 -352 264q-56 168 -56 488zM208 736q0 -264 40 -424q88 -264 272 -264q208 8 280 288q32 160 32 400q0 264 -40 424q-88 264 -272 264 q-208 -8 -280 -288q-32 -160 -32 -400z" />
<glyph unicode="1" horiz-adv-x="1320" d="M272 1304v88l392 128v-1440h272v-80h-648v80h280v1320z" />
<glyph unicode="2" horiz-adv-x="1016" d="M128 0q0 248 64 376q64 136 296 336q336 256 328 456q-16 240 -256 256q-264 -16 -296 -320h-96q40 384 392 400q344 -16 352 -344q8 -224 -328 -488q-392 -320 -360 -592h688v-80h-784z" />
<glyph unicode="3" horiz-adv-x="1032" d="M104 232l88 48q104 -224 328 -224q328 16 344 336q-8 344 -392 360v88q304 24 328 312q-24 248 -280 272q-200 0 -312 -208l-80 48q136 232 400 240q336 -32 368 -368q-8 -224 -240 -328q296 -104 304 -400q0 -192 -120 -304q-112 -112 -312 -112q-264 -8 -424 240z" />
<glyph unicode="4" horiz-adv-x="1104" d="M112 392v72l544 1040h152v-1024h208v-88h-208v-392h-96v392h-600zM216 480h496v952h-8z" />
<glyph unicode="5" horiz-adv-x="992" d="M144 200l72 56q120 -192 304 -200q280 24 304 384q-8 352 -288 384q-160 0 -272 -168l-112 24l56 792h616v-80h-528l-48 -640q104 152 288 152q368 -32 384 -456q0 -184 -96 -304q-96 -152 -320 -152q-208 0 -360 208z" />
<glyph unicode="6" horiz-adv-x="992" d="M112 624q8 384 128 600q152 272 408 280q136 0 248 -80l-48 -80q-88 80 -200 80q-200 0 -336 -248q-112 -224 -104 -480q136 224 352 224q328 -24 360 -448q-24 -472 -416 -480q-392 8 -392 632zM216 432q24 -360 288 -376q304 16 320 416q-16 360 -288 368 q-304 -48 -320 -408z" />
<glyph unicode="7" horiz-adv-x="1040" d="M152 1392v80h776l-568 -1472h-104l552 1392h-656z" />
<glyph unicode="8" horiz-adv-x="1064" d="M104 392q0 280 256 376q-192 96 -208 352q24 360 400 384q384 -16 400 -384q-16 -256 -208 -352q256 -88 264 -376q0 -176 -104 -288q-112 -112 -352 -112q-440 8 -448 400zM200 392q16 -320 352 -336q344 16 360 336q-16 320 -360 336q-336 -16 -352 -336zM248 1104 q16 -280 304 -296q288 16 304 312q-16 288 -304 304q-296 -8 -304 -320z" />
<glyph unicode="9" horiz-adv-x="976" d="M104 1000q24 480 416 504q208 0 320 -232q72 -152 72 -424q0 -312 -96 -536q-152 -312 -440 -320q-136 -8 -248 56l48 80q104 -72 200 -72q216 0 344 272q104 232 96 456q-136 -232 -352 -232q-328 24 -360 448zM200 1000q16 -360 288 -368q120 8 232 136q96 120 88 272 q-24 368 -288 384q-304 -16 -320 -424z" />
<glyph unicode=":" horiz-adv-x="608" d="M192 112q8 128 136 136q120 -16 136 -136q-8 -120 -136 -128q-128 8 -136 128zM192 824q8 136 136 144q120 -16 136 -144q-16 -120 -136 -136q-128 8 -136 136z" />
<glyph unicode=";" horiz-adv-x="480" d="M72 104q8 120 136 128q136 -8 144 -168q0 -88 -80 -160q-88 -88 -200 -112v80q128 48 160 120h-40q-120 0 -120 112zM72 824q8 136 136 144q120 -16 136 -144q-16 -120 -136 -136q-128 8 -136 136z" />
<glyph unicode="&#x3c;" horiz-adv-x="1056" d="M136 736l776 736l56 -64l-696 -672l696 -672l-56 -64z" />
<glyph unicode="=" horiz-adv-x="1320" d="M136 552v96h1088v-96h-1088zM136 832v88h1088v-88h-1088z" />
<glyph unicode="&#x3e;" horiz-adv-x="1056" d="M136 64l696 672l-696 672l56 64l776 -736l-776 -736z" />
<glyph unicode="?" horiz-adv-x="864" d="M96 1192q40 296 344 312q160 0 248 -88q104 -96 104 -264q16 -184 -184 -312q-144 -88 -120 -256v-128h-96v200q0 64 16 112q24 64 160 152q136 112 128 240q-16 248 -256 264q-216 -8 -240 -232h-104zM320 112q16 120 136 136q128 -16 144 -136q-8 -120 -144 -128 q-128 8 -136 128z" />
<glyph unicode="@" horiz-adv-x="1424" d="M128 608q8 376 208 656q184 240 440 240q528 -48 568 -616q-32 -480 -320 -504q-128 8 -176 120q-96 -120 -216 -120q-160 8 -176 184q8 208 120 360q104 120 352 120h64l-56 -320q-48 -264 96 -256q192 16 216 400q-24 488 -456 552q-208 0 -368 -184 q-192 -248 -200 -624q16 -528 480 -560q224 0 472 168l32 -88q-256 -152 -520 -152q-536 32 -560 624zM552 576q8 -104 88 -112q152 8 224 360l24 136q-120 -8 -200 -64q-112 -112 -136 -320z" />
<glyph unicode="A" horiz-adv-x="1032" d="M48 0l488 1536l496 -1536h-112l-128 448h-504l-136 -448h-104zM304 528h464l-232 744z" />
<glyph unicode="B" horiz-adv-x="1032" d="M168 0v1472h360q352 -16 368 -360q-8 -232 -240 -328q296 -96 304 -392q0 -136 -56 -216q-112 -176 -312 -176h-424zM264 80h312q272 32 288 304q-32 320 -344 344h-256v-648zM264 808h152q376 8 384 312v13q0 259 -312 259h-224v-584z" />
<glyph unicode="C" horiz-adv-x="1024" d="M112 720q0 408 120 600q128 184 344 184q296 -16 344 -304h-96q-32 208 -248 224q-368 0 -368 -696v-28q0 -644 360 -644q256 24 272 264h104q-48 -328 -384 -336q-248 0 -360 216q-88 184 -88 520z" />
<glyph unicode="D" horiz-adv-x="1048" d="M168 0v1472h368q240 0 352 -208q88 -168 88 -528q0 -384 -112 -576q-120 -160 -360 -160h-336zM264 80h184h22q269 0 346 192q64 144 64 464q0 336 -72 480q-81 177 -319 177q-20 0 -41 -1h-184v-1312z" />
<glyph unicode="E" horiz-adv-x="1056" d="M184 0v1472h720v-80h-624v-592h448v-80h-448v-640h640v-80h-736z" />
<glyph unicode="F" horiz-adv-x="1000" d="M160 0v1472h752v-80h-656v-584h496v-80h-496v-728h-96z" />
<glyph unicode="G" horiz-adv-x="1056" d="M112 688q0 432 104 616q104 200 336 200q312 -8 352 -368h-96q-16 272 -248 288q-184 0 -272 -184q-80 -168 -80 -512q0 -280 56 -448q72 -224 272 -224q336 16 344 456v120h-360v80h456v-728h-96v224h-8q-80 -216 -344 -224q-264 0 -360 264q-56 168 -56 440z" />
<glyph unicode="H" horiz-adv-x="1072" d="M168 0v1472h96v-664h584v664h96v-1472h-96v728h-584v-728h-96z" />
<glyph unicode="I" horiz-adv-x="800" d="M168 0v80h208v1312h-208v80h504v-80h-200v-1312h200v-80h-504z" />
<glyph unicode="J" horiz-adv-x="952" d="M48 448v152h96v-208q0 -336 260 -336h12q296 8 304 336v1000h-280v80h376v-1008v-19q0 -461 -375 -461h-25h-12q-356 0 -356 445v19z" />
<glyph unicode="K" horiz-adv-x="1024" d="M168 0v1472h96v-672q152 0 352 288q136 184 208 392l104 -56q-24 -40 -64 -112q-80 -120 -112 -184q-184 -280 -352 -376l632 -752h-136l-584 720h-48v-720h-96z" />
<glyph unicode="L" horiz-adv-x="984" d="M184 0v1472h96v-1392h648v-80h-744z" />
<glyph unicode="M" horiz-adv-x="1192" d="M176 0v1472h104l336 -808l336 808h112v-1472h-96v1280h-8l-344 -816l-336 816l-8 -8v-1272h-96z" />
<glyph unicode="N" horiz-adv-x="1048" d="M176 0v1472h136l504 -1264l8 8v1256h96v-1472h-104l-536 1344l-8 -8v-1336h-96z" />
<glyph unicode="O" horiz-adv-x="1048" d="M112 736q0 392 88 560q112 208 344 208q248 0 344 -208q89 -162 89 -502q0 -28 -1 -58q0 -328 -64 -488q-85 -264 -352 -264h-16q-208 0 -320 152q-112 176 -112 600zM208 736q0 -352 88 -512q72 -168 248 -168h13q197 0 267 232q56 152 56 448q0 368 -96 544 q-80 144 -240 144h-14q-143 0 -234 -160q-88 -160 -88 -528z" />
<glyph unicode="P" horiz-adv-x="984" d="M184 0v1472h336q392 -8 400 -440q0 -200 -112 -312q-120 -120 -344 -120h-184v-600h-96zM280 680h176q352 0 360 352q0 352 -296 360h-240v-712z" />
<glyph unicode="Q" horiz-adv-x="1056" d="M112 736q0 360 88 536q96 232 344 232q232 0 344 -200q96 -176 96 -568q0 -240 -32 -368q-40 -200 -128 -280l168 -200h-120l-120 144q-88 -48 -208 -48q-264 0 -360 248q-72 176 -72 504zM208 736q-1 -30 -1 -58q0 -622 337 -622t337 622q0 28 -1 58v32q0 656 -321 656 h-15q-337 0 -337 -629q0 -29 1 -59z" />
<glyph unicode="R" horiz-adv-x="1032" d="M168 0v1472h352q376 -16 392 -400q0 -144 -72 -256t-216 -160l400 -656h-120l-368 640h-272v-640h-96zM264 720h240q296 24 304 360q-8 304 -288 312h-256v-672z" />
<glyph unicode="S" horiz-adv-x="1008" d="M112 192l72 56q136 -192 344 -192q288 24 312 304q6 21 6 42q0 149 -294 310l-136 80q-264 148 -264 348v12q16 328 376 352q208 0 376 -168l-56 -72q-176 160 -308 160h-12q-264 -16 -280 -264q-1 -9 -1 -18q0 -142 233 -278l128 -72q338 -188 338 -382q0 -13 -2 -26 q-16 -384 -416 -400q-248 0 -416 208z" />
<glyph unicode="T" horiz-adv-x="1072" d="M88 1392v80h944v-80h-424v-1392h-96v1392h-424z" />
<glyph unicode="U" horiz-adv-x="1064" d="M168 360v1112h96v-1040q0 -200 96 -312q88 -64 192 -64q136 0 208 80q80 88 80 256v1080h104v-1096q0 -192 -120 -296q-112 -96 -272 -96q-128 0 -240 72q-144 120 -144 304z" />
<glyph unicode="V" horiz-adv-x="888" d="M56 1472h120l296 -1408l288 1408h112l-320 -1472h-160z" />
<glyph unicode="W" horiz-adv-x="968" d="M48 1472h112l88 -1312l256 816l256 -816h8l80 1312h120l-120 -1472h-128l-216 728l-208 -728h-136z" />
<glyph unicode="X" horiz-adv-x="840" d="M40 0l360 744l-344 728h112l280 -632l272 632h112l-336 -728l352 -744h-120l-288 656l-280 -656h-120z" />
<glyph unicode="Y" horiz-adv-x="856" d="M32 1472h112l304 -736l312 736h112l-376 -848v-624h-96v624z" />
<glyph unicode="Z" horiz-adv-x="1000" d="M112 0v80l640 1312h-616v80h728v-80l-632 -1312h680v-80h-800z" />
<glyph unicode="[" horiz-adv-x="840" d="M168 -168v1688h552v-80h-456v-1520h456v-88h-552z" />
<glyph unicode="\" horiz-adv-x="584" d="M-16 1528h72l608 -1568h-96z" />
<glyph unicode="]" horiz-adv-x="840" d="M168 -80h448v1520h-448v80h544v-1688h-544v88z" />
<glyph unicode="^" horiz-adv-x="552" d="M-24 1216l320 296l336 -296l-48 -48l-288 216l-288 -216z" />
<glyph unicode="_" horiz-adv-x="1264" d="M40 -136h1232v-104h-1232v104z" />
<glyph unicode="`" horiz-adv-x="496" d="M0 1416l64 88l328 -264l-48 -64z" />
<glyph unicode="a" horiz-adv-x="944" d="M104 320q0 168 96 280q72 104 232 104q120 0 264 -72q2 36 2 69q0 324 -208 324q-9 0 -18 -1q-112 0 -256 -72l-24 88q152 64 288 64q312 -8 312 -376q0 -72 -8 -224q0 -144 -8 -224q8 -160 56 -280l-88 -8q-24 48 -40 160v8q-122 -168 -281 -168h-15q-152 0 -240 104 q-64 88 -64 224zM200 312q16 -240 208 -256h11q153 0 269 224v280q-128 64 -232 64q-248 -8 -256 -312z" />
<glyph unicode="b" horiz-adv-x="1056" d="M160 0q48 144 48 384v1136h96v-504q112 88 264 88q416 -48 432 -552q0 -240 -88 -368q-120 -184 -336 -192q-200 0 -288 160l-40 -160zM304 280q93 -224 260 -224h12q160 8 256 168q72 128 72 320q-8 456 -360 480q-104 0 -240 -104v-640z" />
<glyph unicode="c" horiz-adv-x="928" d="M104 528q0 320 160 464q112 112 288 112q216 0 368 -216l-88 -56q-96 192 -280 192q-344 -16 -352 -480q8 -456 352 -488q152 0 296 176l64 -72q-152 -168 -352 -168q-448 16 -456 536z" />
<glyph unicode="d" horiz-adv-x="1056" d="M104 552q16 496 424 552q152 0 272 -88v504h96v-1136q0 -240 48 -384l-96 -8l-32 160q-96 -160 -288 -160t-312 152q-112 160 -112 408zM200 544q8 -448 328 -488q176 0 272 224v640q-136 104 -248 104q-344 -32 -352 -480z" />
<glyph unicode="e" horiz-adv-x="1024" d="M104 536q0 248 120 416q104 152 320 152q392 -24 400 -576h-744q16 -472 344 -472q160 0 344 112l40 -96q-232 -80 -392 -80q-408 8 -432 544zM200 608h648q-24 384 -312 416q-312 -32 -336 -416z" />
<glyph unicode="f" horiz-adv-x="928" d="M72 928v80h280v128q16 168 72 256q88 112 240 112q120 0 264 -72v-96q-32 16 -88 40q-96 48 -168 48q-200 0 -224 -224v-192h360v-80h-360v-928h-96v928h-280z" />
<glyph unicode="g" horiz-adv-x="1040" d="M104 576q16 512 400 528h16q129 0 280 -120l24 120h96q-40 -160 -40 -496v-72v-456q0 -176 -120 -296q-104 -104 -272 -112q-176 8 -312 144l64 56q112 -112 264 -120q272 16 280 344v136q-128 -128 -304 -136q-344 24 -376 480zM200 600q8 -384 288 -424q176 8 296 168 v520q-112 160 -288 160q-280 -16 -296 -424z" />
<glyph unicode="h" horiz-adv-x="992" d="M160 0v1520h96v-672h8q128 248 360 256q248 -32 256 -312v-792h-96v680q0 344 -176 344q-128 0 -240 -136t-112 -344v-544h-96z" />
<glyph unicode="i" horiz-adv-x="800" d="M192 1000v80h408v-1080h-96v1000h-312zM440 1400q8 96 112 104q96 -8 104 -104q-8 -104 -104 -112q-104 8 -112 112z" />
<glyph unicode="j" horiz-adv-x="904" d="M72 56h96q0 -304 216 -304q216 16 232 232v1016h-320v80h416v-1080q-24 -304 -320 -328q-152 0 -240 104q-80 104 -80 280zM544 1400q8 96 112 104q96 -8 104 -104q-8 -104 -104 -112q-104 8 -112 112z" />
<glyph unicode="k" horiz-adv-x="904" d="M144 0v1520h96v-968q120 112 232 240q120 120 232 288h128q-64 -80 -112 -128q-192 -232 -216 -256q-32 -24 -104 -104l520 -592h-128l-448 536l-104 -104v-432h-96z" />
<glyph unicode="l" horiz-adv-x="744" d="M192 1440v80h416v-1520h-104v1440h-312z" />
<glyph unicode="m" horiz-adv-x="1280" d="M176 1104h96l24 -136q112 136 256 136q120 0 168 -128q96 128 224 128q200 -8 208 -224v-880h-96v872q0 152 -128 152q-112 0 -200 -136v-888h-96v832v23q0 169 -112 169q-136 -8 -216 -160v-864h-96v752q0 216 -32 352z" />
<glyph unicode="n" horiz-adv-x="1048" d="M160 1096h88l40 -312h8q104 296 384 320q240 -8 248 -328v-776h-96v728q1 24 1 47q0 250 -160 249h-9q-184 -8 -288 -208q-72 -128 -80 -368v-448h-96v544q1 51 1 99q0 288 -41 453z" />
<glyph unicode="o" horiz-adv-x="992" d="M104 544q0 240 96 392q120 168 320 168q408 -32 416 -560q-8 -536 -416 -552q-240 8 -344 200q-72 144 -72 352zM200 544q8 -480 320 -488q312 8 320 488q-8 472 -320 480q-312 -8 -320 -480z" />
<glyph unicode="p" horiz-adv-x="1056" d="M160 1096l88 8l40 -176q88 176 288 176q184 -8 312 -160q112 -168 112 -408q0 -232 -112 -384t-320 -160q-168 0 -264 80v-488h-96v1120q0 240 -48 392zM304 168q128 -112 240 -112q352 32 360 488q-8 440 -328 480h-12q-160 0 -260 -216v-640z" />
<glyph unicode="q" horiz-adv-x="1056" d="M104 536q0 248 112 416q120 152 312 152q192 -8 280 -176h8l32 176l96 -8q-48 -152 -48 -392v-1120h-96v488q-110 -81 -247 -81q-12 0 -25 1q-192 8 -320 160q-96 136 -104 384zM200 544q8 -456 352 -488q120 0 248 112v640q-100 216 -260 216h-12q-320 -40 -328 -480z " />
<glyph unicode="r" horiz-adv-x="904" d="M160 1096h88l40 -304q152 312 368 312q224 -8 232 -328h-96v24q0 224 -144 224q-120 -8 -232 -152q-120 -184 -120 -432v-440h-96v752z" />
<glyph unicode="s" horiz-adv-x="840" d="M64 152l56 80q184 -168 360 -176q216 16 224 200q1 9 1 18q0 155 -257 246q-328 102 -328 302v10q24 248 320 272q168 0 328 -112l-40 -80q-152 112 -296 112q-200 -24 -216 -200q0 -136 240 -216q344 -110 344 -334v-10q0 -144 -120 -224q-88 -48 -208 -48 q-216 8 -408 160z" />
<glyph unicode="t" horiz-adv-x="944" d="M64 1000v80h248v352h96v-352h392v-80h-392v-736q8 -208 168 -208t256 192l88 -16q-112 -232 -344 -240q-12 -1 -23 -1q-133 0 -185 89q-56 72 -56 240v680h-248z" />
<glyph unicode="u" horiz-adv-x="1048" d="M160 320v760h96v-712q0 -312 160 -312h8q152 8 272 176q96 168 96 416v432h96v-528q0 -272 40 -552h-88l-40 304h-8q-104 -296 -384 -312q-240 8 -248 328z" />
<glyph unicode="v" horiz-adv-x="856" d="M48 1080h104l296 -952l296 952h104l-344 -1080h-112z" />
<glyph unicode="w" horiz-adv-x="1048" d="M40 1080h112l144 -936h8l192 664h104l192 -664l152 936h104l-192 -1080h-104l-208 688l-208 -688h-104z" />
<glyph unicode="x" horiz-adv-x="1000" d="M48 0l424 584l-344 496h112l280 -424l272 424h112l-328 -496l416 -584h-128l-344 520l-344 -520h-128z" />
<glyph unicode="y" horiz-adv-x="1048" d="M48 -120l80 40q64 -168 168 -168q112 0 192 200l88 176l-352 952h104l296 -832l304 832h112l-400 -1024q-8 -16 -16 -40q-64 -144 -112 -208q-96 -136 -216 -136q-176 8 -248 208z" />
<glyph unicode="z" horiz-adv-x="1000" d="M96 0v80l672 920h-576v80h696v-80l-672 -920h696v-80h-816z" />
<glyph unicode="{" horiz-adv-x="704" d="M88 664v8q176 24 160 232v336q0 128 48 200q56 72 248 80l8 -8q-224 -24 -208 -256v-336q16 -224 -168 -248v-8q184 -24 168 -264v-320q0 -224 208 -240l-8 -8q-184 8 -248 80q-48 72 -48 208v304q16 216 -160 240z" />
<glyph unicode="|" horiz-adv-x="328" d="M144 -496v2032h88v-2032h-88z" />
<glyph unicode="}" horiz-adv-x="704" d="M200 -160q216 24 200 248v328q-16 224 168 256q-184 40 -168 264v320q8 240 -200 256v8q200 0 256 -96q48 -72 40 -200v-312q-16 -208 160 -240q-176 -32 -160 -240v-328q0 -128 -48 -184q-72 -80 -248 -88v8z" />
<glyph unicode="~" horiz-adv-x="1480" d="M208 616q136 248 296 248q104 0 264 -72q176 -80 240 -80q144 8 240 192l64 -48q-120 -224 -304 -232q-64 0 -248 72q-24 8 -40 16q-160 64 -200 64q-136 8 -248 -208z" />
<glyph unicode="&#xa4;" d="M432 216l224 224q-104 128 -104 296t104 304l-224 216l64 64l224 -216q136 104 304 104t304 -104l224 216l64 -64l-224 -216q104 -136 104 -304t-104 -296l224 -224l-64 -64l-224 224q-136 -112 -304 -112t-304 112l-224 -224zM632 736q32 -360 392 -392q360 32 392 392 q-24 368 -392 392q-360 -24 -392 -392z" />
<glyph unicode="&#xa7;" d="M640 824q0 152 160 232q-72 80 -80 176q8 256 296 272q320 -8 320 -320h-96q8 232 -216 240q-200 -8 -208 -176q0 -104 160 -224q8 0 16 -8l120 -96q8 -8 32 -24q272 -176 264 -320q0 -144 -160 -232q80 -72 80 -176q-16 -240 -296 -256q-320 8 -320 304h96 q-8 -224 216 -224q200 8 208 160q0 104 -136 200q-24 24 -40 32l-120 96q-8 8 -32 24q-272 176 -264 320zM736 840q0 -72 80 -144l384 -304q104 48 112 168q0 56 -64 136l-16 16l-384 296q-104 -48 -112 -168z" />
<glyph unicode="&#xa8;" d="M720 1336q8 96 112 112q112 -8 120 -112q-8 -104 -120 -112q-104 16 -112 112zM1096 1336q8 104 112 112q112 -8 120 -112q-8 -104 -120 -112q-104 8 -112 112z" />
<glyph unicode="&#xad;" horiz-adv-x="1320" d="M136 696v88h1088v-88h-1088z" />
<glyph unicode="&#xb0;" d="M216 1128q32 360 400 392q360 -32 392 -392q-32 -368 -392 -400q-368 32 -400 400zM304 1128q24 -288 312 -312q280 24 304 312q-24 280 -304 304q-288 -32 -312 -304z" />
<glyph unicode="&#xb1;" d="M480 96v88h1088v-88h-1088zM480 792v88h496v496h96v-496h496v-88h-496v-504h-96v504h-496z" />
<glyph unicode="&#xb7;" d="M816 728q16 192 208 208q192 -16 208 -208q-16 -184 -208 -200q-192 16 -208 200z" />
<glyph unicode="&#xd7;" d="M480 256l480 480l-480 480l64 64l480 -480l480 480l64 -64l-480 -480l480 -480l-64 -64l-480 480l-480 -480z" />
<glyph unicode="&#xe0;" d="M528 552q0 240 136 392q144 152 368 160q240 8 336 -88v88h96v-728q0 -216 56 -376l-88 -8l-48 160q-128 -160 -360 -160q-248 0 -384 160q-112 144 -112 400zM616 544q16 -448 408 -488q240 8 344 216v648q-112 112 -304 104q-432 -40 -448 -480zM856 1416l72 80 l328 -264l-48 -64z" />
<glyph unicode="&#xe1;" d="M528 552q0 240 136 392q144 152 368 160q240 8 336 -88v88h96v-728q0 -216 56 -376l-88 -8l-48 160q-128 -160 -360 -160q-248 0 -384 160q-112 144 -112 400zM616 544q16 -448 408 -488q240 8 344 216v648q-112 112 -304 104q-432 -40 -448 -480zM896 1256l352 240 l48 -56l-328 -272z" />
<glyph unicode="&#xe8;" d="M528 544q24 544 520 560q464 -24 472 -576h-896q8 -448 424 -472q192 0 416 104l40 -88q-240 -80 -464 -80q-256 0 -368 128q-144 144 -144 424zM624 608h800q-32 400 -392 416q-368 -40 -408 -416zM776 1416l72 88l328 -264l-48 -64z" />
<glyph unicode="&#xe9;" d="M528 544q24 544 520 560q464 -24 472 -576h-896q8 -448 424 -472q192 0 416 104l40 -88q-240 -80 -464 -80q-256 0 -368 128q-144 144 -144 424zM624 608h800q-32 400 -392 416q-368 -40 -408 -416zM904 1264l352 240l48 -64l-328 -264z" />
<glyph unicode="&#xea;" d="M528 544q24 544 520 560q464 -24 472 -576h-896q8 -448 424 -472q192 0 416 104l40 -88q-240 -80 -464 -80q-256 0 -368 128q-144 144 -144 424zM624 608h800q-32 400 -392 416q-368 -40 -408 -416zM688 1216l328 296l336 -296l-48 -48l-288 216l-280 -216z" />
<glyph unicode="&#xec;" d="M712 1000v80h568v-1080h-112v1000h-456zM872 1416l72 88l328 -264l-48 -64z" />
<glyph unicode="&#xed;" d="M712 1000v80h568v-1080h-112v1000h-456zM896 1264l352 240l48 -64l-328 -264z" />
<glyph unicode="&#xf2;" d="M528 544q8 224 80 352q136 200 416 208q488 -24 496 -560q-8 -536 -496 -552q-488 8 -496 552zM616 544q16 -480 408 -488q392 8 408 488q-16 472 -408 480q-392 -8 -408 -480zM776 1416l72 88l328 -264l-40 -64z" />
<glyph unicode="&#xf3;" d="M528 544q8 224 80 352q136 200 416 208q488 -24 496 -560q-8 -536 -496 -552q-488 8 -496 552zM616 544q16 -480 408 -488q392 8 408 488q-16 472 -408 480q-392 -8 -408 -480zM904 1264l360 240l48 -64l-328 -264z" />
<glyph unicode="&#xf7;" d="M480 696v88h1088v-88h-1088zM936 416q8 80 88 88q80 -8 88 -88q-8 -80 -88 -88q-80 8 -88 88zM936 1056q8 80 88 88q80 -8 88 -88q-8 -80 -88 -88q-80 8 -88 88z" />
<glyph unicode="&#xf9;" d="M560 320v768h96v-720q0 -304 232 -304q440 56 464 584v440h96v-536q0 -336 56 -552h-96l-48 288h-8q-152 -296 -480 -296q-312 8 -312 328zM728 1416l80 88l328 -264l-48 -64z" />
<glyph unicode="&#xfa;" d="M560 320v768h96v-720q0 -304 232 -304q440 56 464 584v440h96v-536q0 -336 56 -552h-96l-48 288h-8q-152 -296 -480 -296q-312 8 -312 328zM872 1264l352 240l48 -64l-328 -264z" />
<glyph unicode="&#xfc;" d="M560 320v768h96v-720q0 -304 232 -304q440 56 464 584v440h96v-536q0 -336 56 -552h-96l-48 288h-8q-152 -296 -480 -296q-312 8 -312 328zM696 1336q8 104 112 112q104 -8 112 -112q-8 -104 -112 -112q-104 8 -112 112zM1072 1336q8 104 112 112q104 -8 112 -112 q-8 -104 -112 -112q-104 8 -112 112z" />
<glyph unicode="&#x2000;" horiz-adv-x="824" vert-adv-y="0" />
<glyph unicode="&#x2001;" horiz-adv-x="1648" vert-adv-y="0" />
<glyph unicode="&#x2002;" horiz-adv-x="824" vert-adv-y="0" />
<glyph unicode="&#x2003;" horiz-adv-x="1648" vert-adv-y="0" />
<glyph unicode="&#x2004;" horiz-adv-x="549" vert-adv-y="0" />
<glyph unicode="&#x2005;" horiz-adv-x="412" vert-adv-y="0" />
<glyph unicode="&#x2006;" horiz-adv-x="274" vert-adv-y="0" />
<glyph unicode="&#x2007;" horiz-adv-x="274" vert-adv-y="0" />
<glyph unicode="&#x2008;" horiz-adv-x="206" vert-adv-y="0" />
<glyph unicode="&#x2009;" horiz-adv-x="329" vert-adv-y="0" />
<glyph unicode="&#x200a;" horiz-adv-x="91" vert-adv-y="0" />
<glyph unicode="&#x2010;" horiz-adv-x="1320" d="M136 696v88h1088v-88h-1088z" />
<glyph unicode="&#x2011;" horiz-adv-x="1320" d="M136 696v88h1088v-88h-1088z" />
<glyph unicode="&#x2012;" horiz-adv-x="1320" d="M136 696v88h1088v-88h-1088z" />
<glyph unicode="&#x2013;" horiz-adv-x="1256" d="M136 696v88h1024v-88h-1024z" />
<glyph unicode="&#x2014;" d="M8 656v80h2032v-80h-2032z" />
<glyph unicode="&#x2018;" d="M1416 1000v392q16 224 240 248v-80q-152 -16 -160 -168v-120h136v-272h-216z" />
<glyph unicode="&#x2019;" d="M392 1000v72q152 16 160 184v96h-136v288h216v-384q-8 -232 -240 -256z" />
<glyph unicode="&#x201c;" d="M1304 1104v288q16 160 152 184v-88q-64 -16 -64 -112v-80h64v-192h-152zM1616 1104v288q16 160 152 184v-88q-48 -32 -56 -112v-80h56v-192h-152z" />
<glyph unicode="&#x201d;" d="M280 1096v88q56 48 56 120v80h-56v192h152v-288q-16 -168 -152 -192zM592 1096v88q64 32 64 120v80h-64v192h152v-288q-16 -168 -152 -192z" />
<glyph unicode="&#x2026;" d="M232 688q16 88 104 96q88 -8 96 -96q-8 -96 -96 -104q-96 8 -104 104zM912 688q16 88 104 96q80 -8 88 -96q-8 -96 -88 -104q-96 8 -104 104zM1616 688q16 88 104 96q88 -8 96 -96q-8 -96 -96 -104q-96 8 -104 104z" />
<glyph unicode="&#x202f;" horiz-adv-x="329" vert-adv-y="0" />
<glyph unicode="&#x205f;" horiz-adv-x="412" vert-adv-y="0" />
<glyph unicode="&#x25fc;" horiz-adv-x="1080" vert-adv-y="2160" d="M0 0v1080h1080v-1080h-1080z" />
</font>
</defs>
</svg>
